<?xml version="1.0" encoding="iso-8859-1"?>
<!-- Generator: Adobe Illustrator 19.0.0, SVG Export Plug-In . SVG Version: 6.00 Build 0)  -->
<svg version="1.1" id="Layer_1" xmlns="http://www.w3.org/2000/svg" xmlns:xlink="http://www.w3.org/1999/xlink" x="0px" y="0px"
	 viewBox="0 0 512 512" style="enable-background:new 0 0 512 512;" xml:space="preserve">
<g>
	<g>
		<path d="M362.667,0H149.333C119.936,0,96,23.915,96,53.333v448c0,4.309,2.603,8.213,6.592,9.835
			c3.989,1.685,8.576,0.747,11.627-2.304L256,367.083l141.781,141.803c2.048,2.027,4.779,3.115,7.552,3.115
			c1.365,0,2.752-0.256,4.075-0.811c3.989-1.643,6.592-5.547,6.592-9.856v-448C416,23.936,392.064,0,362.667,0z M394.667,475.563
			L263.552,344.448c-2.091-2.069-4.821-3.115-7.552-3.115s-5.461,1.045-7.552,3.136L117.333,475.584V53.333
			c0-17.643,14.357-32,32-32h213.333c17.643,0,32,14.357,32,32V475.563z"/>
	</g>
</g>
<g>
</g>
<g>
</g>
<g>
</g>
<g>
</g>
<g>
</g>
<g>
</g>
<g>
</g>
<g>
</g>
<g>
</g>
<g>
</g>
<g>
</g>
<g>
</g>
<g>
</g>
<g>
</g>
<g>
</g>
</svg>
